<?xml version="1.0" encoding="iso-8859-1"?>
<!-- Generator: Adobe Illustrator 19.0.0, SVG Export Plug-In . SVG Version: 6.00 Build 0)  -->
<svg version="1.1" id="Capa_1" xmlns="http://www.w3.org/2000/svg" xmlns:xlink="http://www.w3.org/1999/xlink" x="0px" y="0px"
	 viewBox="0 0 512 512" style="enable-background:new 0 0 512 512;" xml:space="preserve">
<path style="fill:#CC2E43;" d="M55.905,366.232c-27.001,0-48.967-21.966-48.967-48.967V104.897
	c0-27.001,21.966-48.967,48.967-48.967H392.64c27.001,0,48.967,21.966,48.967,48.967v212.368c0,27.001-21.966,48.967-48.967,48.967
	H55.905z"/>
<path style="fill:#FFF5F5;" d="M392.639,337.044H55.905c-10.924,0-19.779-8.855-19.779-19.779V104.897
	c0-10.924,8.855-19.779,19.779-19.779h336.734c10.924,0,19.779,8.855,19.779,19.779v212.368
	C412.418,328.189,403.563,337.044,392.639,337.044z"/>
<circle style="fill:#168C80;" cx="483.41" cy="436.954" r="20.538"/>
<g>
	<polygon style="fill:#F7CF69;" points="223.843,278.874 237.075,302.123 263.275,307.523 245.253,327.292 248.213,353.878 
		223.843,342.848 199.473,353.878 202.433,327.292 184.412,307.523 210.612,302.123 	"/>
	<polygon style="fill:#F7CF69;" points="100.937,57.309 114.17,80.558 140.368,85.958 122.347,105.726 125.307,132.313 
		100.937,121.281 76.567,132.313 79.527,105.726 61.506,85.958 87.705,80.558 	"/>
</g>
<polygon style="fill:#FFB64C;" points="109.52,105.727 91.498,85.958 115.933,80.922 114.17,80.558 100.938,57.309 87.705,80.558 
	61.506,85.958 79.527,105.727 76.567,132.313 100.938,121.281 107.459,124.233 "/>
<polygon style="fill:#F7CF69;" points="347.607,57.309 360.839,80.558 387.039,85.958 369.016,105.726 371.977,132.313 
	347.607,121.281 323.237,132.313 326.197,105.726 308.175,85.958 334.375,80.558 "/>
<g>
	<polygon style="fill:#B5D3E3;" points="223.843,142.008 265.645,96.507 249.677,69.515 198.009,69.515 182.042,96.507 	"/>
	<polygon style="fill:#B5D3E3;" points="347.607,352.136 389.408,306.636 373.441,279.644 321.772,279.644 305.806,306.636 	"/>
	<polygon style="fill:#B5D3E3;" points="100.937,352.136 142.739,306.636 126.772,279.644 75.103,279.644 59.136,306.636 	"/>
</g>
<polygon style="fill:#8ABBD5;" points="89.128,306.636 105.095,279.644 75.103,279.644 59.136,306.636 100.938,352.136 
	115.933,335.813 "/>
<path style="fill:#168C80;" d="M392.64,55.931H55.905c-27.001,0-48.967,21.966-48.967,48.967v212.368
	c0,27.001,21.966,48.967,48.967,48.967H392.64c27.001,0,48.967-21.966,48.967-48.967V104.897
	C441.606,77.897,419.64,55.931,392.64,55.931z M412.418,317.265c0,10.924-8.855,19.779-19.779,19.779H55.905
	c-10.924,0-19.779-8.855-19.779-19.779V104.897c0-10.924,8.855-19.779,19.779-19.779h336.734c10.924,0,19.779,8.855,19.779,19.779
	V317.265z"/>
<path style="fill:#13776B;" d="M36.931,317.265V104.897c0-27.001,21.966-48.967,48.967-48.967H55.905
	c-27.001,0-48.967,21.966-48.967,48.967v212.368c0,27.001,21.966,48.967,48.967,48.967h29.993
	C58.896,366.232,36.931,344.266,36.931,317.265z"/>
<path style="fill:#EC5569;" d="M134.236,178.661L134.236,178.661c-7.525-7.525-19.724-7.525-27.249,0l-4.251,4.251
	c-1.014,1.014-2.656,1.014-3.67,0l-4.183-4.183c-7.525-7.525-19.724-7.525-27.249,0l0,0c-7.525,7.525-7.525,19.724,0,27.249
	l31.433,31.433c1.014,1.014,2.656,1.014,3.67,0l31.496-31.501C141.761,198.384,141.761,186.185,134.236,178.661z"/>
<path style="fill:#E63950;" d="M97.63,205.977c-7.061-7.061-7.495-18.239-1.303-25.807l-1.442-1.442
	c-7.525-7.525-19.724-7.525-27.249,0l0,0c-7.525,7.525-7.525,19.724,0,27.249L99.07,237.41c1.014,1.014,2.656,1.014,3.67,0
	l13.16-13.163L97.63,205.977z"/>
<g>
	<path style="fill:#EC5569;" d="M257.82,178.661L257.82,178.661c-7.525-7.525-19.724-7.525-27.249,0l-4.251,4.251
		c-1.014,1.014-2.656,1.014-3.67,0l-4.183-4.183c-7.525-7.525-19.724-7.525-27.249,0l0,0c-7.525,7.525-7.525,19.724,0,27.249
		l31.433,31.433c1.014,1.014,2.656,1.014,3.67,0l31.496-31.501C265.345,198.384,265.345,186.185,257.82,178.661z"/>
	<path style="fill:#EC5569;" d="M380.907,178.661L380.907,178.661c-7.525-7.525-19.724-7.525-27.249,0l-4.251,4.251
		c-1.014,1.014-2.656,1.014-3.67,0l-4.183-4.183c-7.525-7.525-19.724-7.525-27.249,0l0,0c-7.525,7.525-7.525,19.724,0,27.249
		l31.433,31.433c1.014,1.014,2.656,1.014,3.67,0l31.496-31.501C388.43,198.384,388.43,186.185,380.907,178.661z"/>
</g>
<path d="M491.462,409.237V219.91c0-16.04-13.05-29.09-29.09-29.09H449.66v-86.639c0-31.133-25.329-56.462-56.462-56.462H56.462
	C25.329,47.718,0,73.047,0,104.181v212.374c0,31.133,25.329,56.462,56.462,56.462h336.735c31.133,0,56.462-25.329,56.462-56.462
	v-110.74h12.712c7.772,0,14.095,6.323,14.095,14.095v189.327c-11.829,3.288-20.538,14.148-20.538,27.01
	c0,15.459,12.577,28.035,28.035,28.035c15.458,0,28.035-12.577,28.035-28.035C512,423.384,503.291,412.525,491.462,409.237z
	 M434.665,316.555c0,22.865-18.602,41.467-41.467,41.467H56.462c-22.865,0-41.467-18.602-41.467-41.467V104.181
	c0-22.865,18.602-41.467,41.467-41.467h336.735c22.865,0,41.467,18.602,41.467,41.467L434.665,316.555L434.665,316.555z
	 M483.965,449.285c-7.191,0-13.04-5.85-13.04-13.04c0-7.19,5.85-13.04,13.04-13.04c7.19,0,13.04,5.85,13.04,13.04
	C497.005,443.436,491.154,449.285,483.965,449.285z"/>
<path d="M121.172,164.808c-7.149,0-13.871,2.784-18.926,7.84l-0.784,0.784l-0.716-0.716c-5.055-5.055-11.776-7.84-18.926-7.84
	s-13.871,2.784-18.926,7.84c-5.055,5.055-7.84,11.776-7.84,18.926c0,7.15,2.784,13.871,7.84,18.926l31.433,31.433
	c1.967,1.967,4.551,2.951,7.136,2.951c2.584,0,5.169-0.984,7.138-2.951l31.495-31.5c5.055-5.055,7.84-11.776,7.84-18.926
	c0-7.15-2.784-13.871-7.84-18.926C135.043,167.592,128.321,164.808,121.172,164.808z M129.495,199.896l-28.029,28.033
	l-27.966-27.966c-4.589-4.589-4.589-12.056,0-16.645c2.222-2.223,5.178-3.447,8.322-3.447s6.099,1.225,8.322,3.447l4.184,4.184
	c3.937,3.934,10.338,3.934,14.273-0.001l4.25-4.25c4.59-4.589,12.056-4.589,16.645,0
	C134.083,187.84,134.083,195.307,129.495,199.896z"/>
<path d="M244.756,164.808c-7.149,0-13.871,2.784-18.926,7.84l-0.784,0.784l-0.716-0.716c-5.055-5.055-11.776-7.84-18.926-7.84
	c-7.15,0-13.871,2.784-18.926,7.84c-5.055,5.055-7.84,11.776-7.84,18.926c0,7.15,2.784,13.871,7.84,18.926l31.434,31.434
	c1.967,1.966,4.552,2.95,7.136,2.95c2.584,0,5.169-0.984,7.137-2.952l31.495-31.5c5.055-5.055,7.84-11.776,7.84-18.926
	c0-7.15-2.784-13.871-7.84-18.926C258.627,167.592,251.905,164.808,244.756,164.808z M253.077,199.896l-28.029,28.033
	l-27.966-27.966c-4.589-4.589-4.589-12.056,0-16.645c2.294-2.294,5.308-3.442,8.322-3.442s6.028,1.147,8.322,3.442l4.183,4.183
	c3.935,3.936,10.338,3.936,14.274,0l4.25-4.25c4.59-4.589,12.056-4.589,16.645,0C257.667,187.84,257.667,195.307,253.077,199.896z"
	/>
<path d="M367.842,164.808c-7.149,0-13.871,2.784-18.926,7.84l-0.784,0.784l-0.716-0.716c-5.055-5.055-11.776-7.84-18.926-7.84
	c-7.15,0-13.871,2.784-18.926,7.84c-5.055,5.055-7.84,11.776-7.84,18.926c0,7.15,2.784,13.871,7.84,18.926l31.433,31.433
	c1.967,1.967,4.551,2.951,7.136,2.951c2.584,0,5.169-0.984,7.138-2.951l31.495-31.5c5.055-5.055,7.84-11.776,7.84-18.926
	c0-7.15-2.784-13.871-7.84-18.926C381.712,167.592,374.991,164.808,367.842,164.808z M376.164,199.896l-28.029,28.033
	l-27.966-27.966c-4.589-4.589-4.589-12.056,0-16.645c2.222-2.223,5.178-3.447,8.322-3.447c3.144,0,6.099,1.225,8.322,3.447
	l4.184,4.184c3.937,3.934,10.338,3.934,14.273-0.001l4.25-4.25c4.59-4.589,12.056-4.589,16.645,0
	C380.754,187.84,380.754,195.307,376.164,199.896z"/>
<path d="M393.198,76.91h-4.826c-0.002,0-0.004,0-0.007,0h-80.397h-22.169c-0.003,0-0.006,0-0.01,0s-0.006,0-0.01,0H163.883
	c-0.003,0-0.006,0-0.01,0s-0.006,0-0.01,0h-22.172H61.632c0,0,0,0-0.001,0c-0.002,0-0.004,0-0.007,0h-5.161
	c-15.037,0-27.272,12.234-27.272,27.272v212.374c0,15.037,12.234,27.272,27.272,27.272h31.16h27.741h48.432
	c0.026,0,0.051,0.004,0.077,0.004c0.026,0,0.051-0.004,0.077-0.004h37.956l0,0c0.003,0,0.006,0,0.009,0s0.007,0,0.01,0h44.977h0.06
	c0.004,0,0.008,0,0.013,0h38.736c0.026,0,0.051,0.004,0.077,0.004s0.051-0.004,0.077-0.004h107.333
	c15.043,0,27.282-12.234,27.282-27.272V104.182C420.479,89.143,408.241,76.91,393.198,76.91z M362.124,105.84l1.502,13.498
	l-12.371-5.602c-0.983-0.445-2.038-0.668-3.093-0.668c-1.056,0-2.11,0.223-3.094,0.668l-12.36,5.599l1.502-13.496
	c0.239-2.144-0.458-4.288-1.912-5.881l-7.345-8.053h46.427l-7.345,8.053C362.581,101.552,361.885,103.696,362.124,105.84z
	 M256.92,94.821l-32.519,35.396l-32.51-35.396l1.725-2.916h61.578L256.92,94.821z M115.45,105.843l1.507,13.493l-12.365-5.599
	c-1.966-0.891-4.221-0.891-6.186,0l-12.371,5.602l1.502-13.498c0.236-2.121-0.443-4.242-1.866-5.831l-7.258-8.103h46.295
	l-7.345,8.053C115.907,101.553,115.211,103.698,115.45,105.843z M112.071,328.832H90.916L68.98,304.955l10.962-18.521h43.113
	l10.955,18.52L112.071,328.832z M240.272,321.531c-1.454,1.595-2.149,3.739-1.91,5.883l0.158,1.417h-28.231l0.158-1.417
	c0.24-2.145-0.457-4.29-1.91-5.884l-9.15-10.039l13.299-2.74c2.113-0.436,3.937-1.76,5.003-3.636l6.711-11.794l6.719,11.797
	c1.067,1.874,2.89,3.198,5.002,3.633l13.299,2.74L240.272,321.531z M337.589,328.832l-21.937-23.877l10.955-18.52h43.121
	l10.955,18.52l-21.937,23.877H337.589z M405.484,316.555c0,6.769-5.511,12.276-12.286,12.276h-14.09L395.49,311
	c2.236-2.434,2.615-6.045,0.933-8.89l-15.965-26.992c-1.35-2.281-3.803-3.681-6.454-3.681H322.33c-2.65,0-5.103,1.4-6.453,3.681
	l-15.965,26.992c-1.683,2.845-1.305,6.456,0.932,8.89l16.382,17.83h-23.939v-49.9c0-4.141-3.357-7.498-7.498-7.498
	s-7.498,3.357-7.498,7.498v49.9h-24.383l15.471-16.973c1.815-1.991,2.422-4.806,1.59-7.369c-0.833-2.563-2.978-4.482-5.618-5.025
	l-22.878-4.714l-11.557-20.295c-1.333-2.341-3.821-3.788-6.515-3.788h-0.001c-2.695,0-5.182,1.448-6.515,3.79l-11.546,20.292
	l-22.877,4.714c-2.64,0.544-4.785,2.462-5.618,5.025s-0.226,5.376,1.59,7.369l15.471,16.973h-23.532V158.547
	c0-4.141-3.357-7.498-7.498-7.498s-7.498,3.357-7.498,7.498v170.285h-23.942l16.382-17.83c2.236-2.434,2.615-6.045,0.933-8.89
	l-15.965-26.992c-1.35-2.281-3.803-3.681-6.454-3.681H75.667c-2.649,0-5.102,1.399-6.452,3.679l-15.975,26.992
	c-1.684,2.845-1.306,6.457,0.931,8.891l16.382,17.83h-14.09c-6.769,0-12.276-5.507-12.276-12.276V104.181
	c0-6.769,5.507-12.276,12.276-12.276h1.819l13.981,15.61l-2.588,23.259c-0.298,2.679,0.865,5.311,3.045,6.895
	c2.18,1.583,5.043,1.876,7.499,0.764l21.28-9.636l21.279,9.636c0.989,0.448,2.042,0.668,3.092,0.668
	c1.559,0,3.105-0.485,4.409-1.433c2.181-1.585,3.343-4.219,3.044-6.898l-2.592-23.217l14.272-15.649h11.374v35.759
	c0,4.141,3.357,7.498,7.498,7.498s7.498-3.357,7.498-7.498V91.903h4.821l-0.042,0.07c-1.683,2.844-1.306,6.456,0.931,8.89
	l41.797,45.507c1.42,1.546,3.422,2.426,5.521,2.426l0,0c2.098,0,4.102-0.88,5.521-2.425l41.807-45.507
	c2.236-2.434,2.615-6.046,0.932-8.891l-0.041-0.07h5.673v155.122c0,4.141,3.357,7.498,7.498,7.498s7.498-3.357,7.498-7.498V91.905
	h11.371l14.273,15.65l-2.583,23.219c-0.298,2.679,0.865,5.311,3.046,6.896c2.18,1.583,5.043,1.875,7.5,0.763l21.269-9.635
	l21.279,9.636c0.989,0.448,2.042,0.668,3.092,0.668c1.558,0,3.104-0.485,4.408-1.432c2.18-1.585,3.343-4.217,3.045-6.896
	l-2.583-23.219l14.273-15.65h1.523c6.775,0,12.286,5.507,12.286,12.276v212.373H405.484z"/>
<g>
</g>
<g>
</g>
<g>
</g>
<g>
</g>
<g>
</g>
<g>
</g>
<g>
</g>
<g>
</g>
<g>
</g>
<g>
</g>
<g>
</g>
<g>
</g>
<g>
</g>
<g>
</g>
<g>
</g>
</svg>
